<svg width="40" height="40" viewBox="0 0 40 40" fill="none" xmlns="http://www.w3.org/2000/svg">
<g clip-path="url(#clip0_75_154)">
<path d="M16.25 28.3334C16.7102 28.3334 17.0833 27.9603 17.0833 27.5001C17.0833 27.0398 16.7102 26.6667 16.25 26.6667C15.7897 26.6667 15.4166 27.0398 15.4166 27.5001C15.4166 27.9603 15.7897 28.3334 16.25 28.3334Z" stroke="#840808" stroke-width="1.2" stroke-linecap="round" stroke-linejoin="round"/>
<path d="M25.4167 28.3334C25.8769 28.3334 26.25 27.9603 26.25 27.5001C26.25 27.0398 25.8769 26.6667 25.4167 26.6667C24.9565 26.6667 24.5834 27.0398 24.5834 27.5001C24.5834 27.9603 24.9565 28.3334 25.4167 28.3334Z" stroke="#840808" stroke-width="1.2" stroke-linecap="round" stroke-linejoin="round"/>
<path d="M9.58337 10.8333H12.9167L15.15 21.9916C15.2262 22.3752 15.435 22.7199 15.7397 22.9652C16.0444 23.2104 16.4256 23.3407 16.8167 23.3333H24.9167C25.3078 23.3407 25.6891 23.2104 25.9938 22.9652C26.2985 22.7199 26.5072 22.3752 26.5834 21.9916L27.9167 14.9999H13.75" stroke="#840808" stroke-width="1.2" stroke-linecap="round" stroke-linejoin="round"/>
</g>
<defs>
<clipPath id="clip0_75_154">
<rect width="20" height="20" fill="white" transform="translate(8.75 10)"/>
</clipPath>
</defs>
</svg>
